<svg width="360" height="120" viewBox="0 0 360 120" fill="none" xmlns="http://www.w3.org/2000/svg">
<g clip-path="url(#clip0)">
<rect width="360" height="120" fill="url(#paint0_linear)"/>
<path d="M304.8 114.225C304.8 93.1029 323.912 75.9081 347.403 75.9081C352.478 75.9081 357.398 76.6897 362.081 78.2432C366.93 73.2739 373.236 69.694 380.203 67.851C373.996 55.3168 361.01 46.9895 346.681 46.9895C343.633 46.9895 340.597 47.3659 337.655 48.0896C335.483 48.6299 333.204 47.7711 331.935 45.9281C324.207 34.6965 311.473 28 297.869 28C287.525 28 277.627 31.8404 270 38.8071C262.419 45.7352 257.709 55.1624 256.736 65.3326C256.556 67.2142 255.401 68.8642 253.694 69.6748C253.197 69.916 252.698 70.1668 252.211 70.437C251.763 70.6879 251.281 70.8712 250.78 70.987C243.821 72.5405 237.501 76.4485 232.983 81.9968C228.338 87.6994 225.885 94.5985 225.885 101.951C225.885 119.455 240.204 133.689 257.806 133.689H296.133C297.19 127.155 300.175 121.008 304.84 115.865C304.814 115.315 304.8 114.775 304.8 114.225Z" fill="#F3E6FA"/>
<path d="M392.991 78.2445C389.657 77.0428 387.932 73.3917 389.135 70.0841C390.123 67.3601 390.625 64.5331 390.625 61.6604C390.625 49.5627 381.737 39.2047 369.258 35.1302C365.583 33.9284 361.601 33.2532 357.44 33.2532C355.261 33.2532 353.115 33.4477 351.021 33.8026C342.454 35.2447 334.809 39.5481 329.831 45.9231C328.036 48.2122 324.903 49.0248 322.213 47.8688C316.934 45.6141 311.248 44.4696 305.312 44.4696C284.317 44.4696 267.236 59.1424 267.236 77.1687C267.236 78.3247 267.31 79.515 267.456 80.6938C267.705 82.6853 266.992 84.6767 265.532 86.0616C261.284 90.1247 258.416 95.0153 257.128 100.256C256.622 102.317 256.353 104.431 256.353 106.57C256.353 108.777 256.632 110.929 257.151 113.005C260.611 126.851 274.986 137.267 292.151 137.267H379.204C398.941 137.267 415 123.496 415 106.57C415 94.1649 406.361 83.0401 392.991 78.2445Z" fill="#FEF39A"/>
</g>
<defs>
<linearGradient id="paint0_linear" x1="-2.59159e-06" y1="108.5" x2="471" y2="-51" gradientUnits="userSpaceOnUse">
<stop stop-color="#2F63F5"/>
<stop offset="1" stop-color="#B880DB"/>
</linearGradient>
<clipPath id="clip0">
<rect width="360" height="120" fill="white"/>
</clipPath>
</defs>
</svg>
