<svg width="360" height="120" viewBox="0 0 360 120" fill="none" xmlns="http://www.w3.org/2000/svg">
<g clip-path="url(#clip0)">
<rect width="360" height="120" fill="url(#paint0_linear)"/>
<path d="M290.329 -39.4567C290.042 -38.5297 288.859 -34.5975 287.677 -30.7293C284.066 -18.8689 282.373 -13.2744 281.446 -10.1095C277.836 1.97461 275.375 9.39134 274.449 10.766C273.937 11.5013 273.298 12.78 272.979 13.6112C272.436 15.1137 272.499 16.3285 273.139 15.9449C273.298 15.849 273.458 15.849 273.458 15.9769C273.458 16.6163 264.767 43.1183 264.479 43.2781C264.032 43.5658 262.274 47.1783 262.274 47.7857C262.274 48.6169 263.105 48.5529 263.68 47.6578C264.16 46.9545 264.671 45.388 268.282 33.8474C272.467 20.5804 274.129 15.3375 274.417 14.794C274.608 14.4744 275.695 11.0857 276.845 7.24944C277.995 3.4132 279.881 -2.82068 281.031 -6.59298C283.268 -13.9138 283.683 -15.3524 284.642 -18.9329C284.961 -20.1797 286.559 -25.6143 288.156 -31.017C289.754 -36.4517 291 -40.9273 290.936 -40.9912C290.872 -41.0872 290.585 -40.3838 290.329 -39.4567ZM274.736 11.5652C274.736 11.7251 274.512 12.1087 274.257 12.4603C273.81 13.0358 273.81 13.0038 274.129 12.1726C274.512 11.3095 274.736 11.0857 274.736 11.5652ZM264.224 44.9724C263.904 45.2602 263.872 45.2282 264.064 44.7806C264.16 44.4609 264.351 44.3011 264.447 44.397C264.543 44.4929 264.447 44.7487 264.224 44.9724Z" fill="#FDFDFD"/>
<path d="M259.942 -16.4393C249.014 16.1047 246.681 22.7542 245.819 23.9051C244.732 25.3756 244.061 26.8462 244.061 27.7733C244.061 28.7963 244.572 28.7004 245.403 27.5815C245.946 26.8462 263.648 -26.1258 263.393 -26.3496C263.361 -26.4136 261.795 -21.938 259.942 -16.4393ZM246.298 24.4166C246.106 24.7682 245.882 25.0559 245.787 25.0559C245.723 25.0559 245.787 24.7682 245.978 24.4166C246.17 24.0649 246.394 23.7772 246.49 23.7772C246.554 23.7772 246.49 24.0649 246.298 24.4166Z" fill="#FDFDFD"/>
<path d="M316.978 -0.902576C312.537 12.3324 308.894 22.6903 308.543 23.1378C307.552 24.3207 306.274 27.2618 306.498 27.8053C306.785 28.5086 307.904 27.8053 308.447 26.5585C308.702 25.9831 310.492 20.5804 312.441 14.5063C316.147 3.02957 318.927 -5.50606 322.73 -17.0787C323.944 -20.851 324.903 -23.952 324.839 -24.0159C324.807 -24.0798 321.228 -13.6581 316.978 -0.902576ZM308.958 23.6813C308.575 24.3207 308.511 24.1289 308.798 23.2977C308.926 23.01 309.086 22.8501 309.15 22.946C309.246 23.01 309.15 23.3616 308.958 23.6813Z" fill="#FDFDFD"/>
<path d="M337.716 -10.653C327.874 15.1457 324.998 22.3706 323.816 24.001C321.739 26.8782 321.26 29.0521 322.794 28.4766C323.561 28.1889 323.944 27.2618 330.143 10.6061C333.37 1.94265 337.556 -9.24638 339.409 -14.2335C341.295 -19.2206 342.764 -23.3445 342.7 -23.4085C342.637 -23.4724 340.4 -17.75 337.716 -10.653ZM324.583 24.0969C324.391 24.4486 324.168 24.7363 324.072 24.7363C324.008 24.7363 324.072 24.4486 324.264 24.0969C324.455 23.7453 324.679 23.4575 324.775 23.4575C324.839 23.4575 324.775 23.7453 324.583 24.0969ZM323.305 27.4217C323.305 27.4856 323.049 27.7413 322.762 27.9651C322.25 28.3807 322.219 28.3487 322.634 27.8372C323.049 27.3257 323.305 27.1659 323.305 27.4217Z" fill="#FDFDFD"/>
<path d="M345.193 -16.727C340.911 -2.53294 331.709 27.5176 331.421 28.2529C331.293 28.6684 331.229 28.6684 330.974 28.2529C330.718 27.8373 330.654 27.8373 330.654 28.2848C330.654 28.5725 330.239 29.7234 329.727 30.8423C329.216 31.9932 328.737 33.7195 328.641 34.8064C328.513 36.4049 328.545 36.5647 328.833 35.7655C328.993 35.222 329.44 34.6146 329.759 34.3589C330.654 33.7515 330.462 34.3589 336.725 13.0678C341.263 -2.34113 344.618 -13.722 346.024 -18.3574C346.759 -20.7231 347.27 -22.6732 347.206 -22.7691C347.142 -22.833 346.247 -20.1157 345.193 -16.727ZM331.293 29.5316C331.101 29.8833 330.878 30.171 330.782 30.171C330.718 30.171 330.782 29.8833 330.974 29.5316C331.165 29.1799 331.389 28.8922 331.485 28.8922C331.549 28.8922 331.485 29.1799 331.293 29.5316ZM330.111 33.208C330.015 33.4957 329.855 33.6556 329.791 33.5597C329.696 33.4637 329.727 33.2719 329.855 33.0801C330.143 32.5686 330.335 32.6645 330.111 33.208Z" fill="#FDFDFD"/>
<path d="M236.552 -8.25536C233.133 4.34028 230.737 13.0038 227.893 23.1059C227.062 26.1109 226.072 28.8922 225.56 29.6914C223.931 32.2489 223.451 34.9343 224.73 34.4547C225.592 34.1031 226.008 32.8563 228.883 22.0189C230.417 16.2006 233.612 4.21241 235.977 -4.6429C238.31 -13.4982 240.195 -20.7871 240.131 -20.851C240.067 -20.9149 238.469 -15.2565 236.552 -8.25536ZM226.199 29.9472C225.88 30.2349 225.848 30.2029 226.04 29.7554C226.135 29.4357 226.327 29.2758 226.423 29.3717C226.519 29.4676 226.423 29.7234 226.199 29.9472Z" fill="#FDFDFD"/>
<path d="M334.073 5.01164C326.085 28.8922 323.848 35.4138 323.624 35.6056C322.442 36.5967 320.972 40.0493 321.388 40.7526C322.155 41.9674 323.049 39.7935 328.13 24.2887C330.942 15.6572 334.84 3.79683 336.789 -2.05343C338.706 -7.90369 340.24 -12.7629 340.176 -12.8269C340.112 -12.8908 337.364 -4.86667 334.073 5.01164Z" fill="#FDFDFD"/>
<path d="M245.499 3.41319C234.986 30.4267 232.91 35.5417 231.823 36.9803C230.705 38.4508 229.778 40.5927 230.13 40.9444C230.417 41.2321 231.216 40.7845 231.727 40.0173C231.983 39.6017 235.05 31.7374 238.565 22.4985C242.08 13.2595 245.851 3.41319 246.905 0.63192C247.991 -2.14935 248.822 -4.48306 248.758 -4.547C248.694 -4.61094 247.225 -1.03045 245.499 3.41319Z" fill="#FDFDFD"/>
<path d="M247.097 5.9707C245.116 13.2276 240.45 30.139 238.278 38.0033C237.383 41.1362 236.552 43.438 235.849 44.6208C234.22 47.2422 233.996 50.0874 235.53 48.5849C236.265 47.8496 236.488 47.0504 240.706 31.13C242.911 22.7862 245.755 12.2366 246.969 7.66504C248.215 3.12549 249.142 -0.646809 249.078 -0.710747C249.014 -0.774681 248.119 2.23037 247.097 5.9707ZM236.424 44.9725C236.105 45.2602 236.073 45.2282 236.265 44.7807C236.36 44.461 236.552 44.3011 236.648 44.397C236.744 44.4929 236.648 44.7487 236.424 44.9725Z" fill="#FDFDFD"/>
<path d="M257.641 11.5332C247.001 37.5557 242.783 47.4021 241.665 48.8726C241.058 49.7038 240.546 50.2473 240.546 50.1194C240.546 49.9915 241.984 46.3791 243.742 42.0633C245.499 37.7475 246.905 34.167 246.841 34.1351C246.777 34.0711 244.221 40.0812 241.185 47.5299C231.12 72.0179 229.522 75.7263 228.5 77.005C227.254 78.5395 226.327 80.6494 226.711 81.0331C227.541 81.8643 228.5 79.9142 233.836 66.6152C237.415 57.7279 239.492 52.9646 239.684 53.1564C240.163 53.6359 241.09 52.9966 241.697 51.8137C242.495 50.3112 262.274 0.983597 262.147 0.855721C262.115 0.791779 260.07 5.61905 257.641 11.5332ZM242.591 48.8407C242.495 49.1284 242.272 49.3521 242.112 49.3521C241.952 49.3521 241.984 49.0644 242.208 48.7128C242.655 48.0095 242.879 48.0734 242.591 48.8407ZM240.866 52.3892C240.642 52.6449 240.323 52.8687 240.131 52.8687C239.939 52.8687 240.067 52.6449 240.418 52.3892C241.217 51.7818 241.377 51.7818 240.866 52.3892ZM229.075 77.2608C228.756 77.5485 228.724 77.5165 228.915 77.069C229.011 76.7493 229.203 76.5894 229.299 76.6853C229.395 76.7812 229.299 77.037 229.075 77.2608Z" fill="#FDFDFD"/>
<path d="M353.98 8.68802C351.967 15.0818 349.762 21.6034 348.388 25.056C346.918 28.8602 346.79 29.2439 347.398 28.2528C347.653 27.8053 347.877 27.5495 347.909 27.6774C347.909 27.8053 346.471 32.2489 344.713 37.5557C342.988 42.8625 341.614 47.3381 341.71 47.498C341.806 47.6578 341.71 47.7217 341.486 47.6898C341.039 47.5939 338.962 51.3342 338.962 52.2613C338.962 53.1884 340.016 52.9966 340.623 51.9736C341.071 51.2383 345.225 38.1631 349.155 25.2158C349.634 23.6174 350.785 20.0369 351.679 17.2237C354.267 9.10361 355.641 4.5321 355.482 4.40422C355.418 4.34029 354.747 6.25841 353.98 8.68802ZM348.26 26.8782C347.877 27.5176 347.813 27.3257 348.101 26.4946C348.228 26.2068 348.388 26.047 348.452 26.1429C348.548 26.2068 348.452 26.5585 348.26 26.8782ZM339.825 52.2933C339.729 52.549 339.633 52.4531 339.633 52.1014C339.601 51.7498 339.697 51.558 339.793 51.6858C339.889 51.7818 339.921 52.0695 339.825 52.2933Z" fill="#FDFDFD"/>
<path d="M260.229 35.8614C253.519 54.3712 251.89 58.4312 251.41 57.664C251.283 57.4402 248.183 65.816 238.437 92.8295C238.214 93.4369 236.744 97.4649 235.146 101.749C233.549 106.033 232.334 109.677 232.462 109.869C232.558 110.061 232.494 110.093 232.302 109.965C231.727 109.613 229.363 113.545 229.363 114.888C229.363 115.687 230.13 115.719 230.864 114.888C231.504 114.217 232.398 111.787 241.505 85.7964C244.892 76.2058 248.151 66.9029 248.79 65.0807C249.653 62.6191 250.1 61.8199 250.516 61.8199C250.835 61.8199 251.283 61.5002 251.538 61.0846C251.794 60.701 254.542 53.2523 257.609 44.5568C260.677 35.8614 264.192 25.8552 265.438 22.3706C266.684 18.886 267.674 15.9769 267.611 15.9129C267.547 15.849 264.224 24.8322 260.229 35.8614ZM252.369 57.9517C252.209 58.3034 251.89 58.687 251.698 58.8149C251.506 58.9108 251.602 58.655 251.89 58.1755C252.529 57.2164 252.848 57.0566 252.369 57.9517ZM251.091 60.9887C251.091 61.0846 250.963 61.2445 250.771 61.3404C250.612 61.4363 250.452 61.3724 250.452 61.2125C250.452 61.0207 250.612 60.8609 250.771 60.8609C250.963 60.8609 251.091 60.9248 251.091 60.9887ZM232.015 111.052C231.919 111.435 231.759 111.659 231.663 111.563C231.504 111.371 231.823 110.412 232.047 110.412C232.111 110.412 232.111 110.7 232.015 111.052ZM231.536 112.49C231.44 112.586 231.248 112.426 231.152 112.107C230.96 111.659 230.992 111.627 231.312 111.915C231.536 112.139 231.631 112.394 231.536 112.49Z" fill="#FDFDFD"/>
<path d="M352.574 21.7312C352.446 22.1788 352.414 22.6264 352.478 22.7223C352.574 22.7862 352.734 22.4665 352.83 21.987C352.957 21.5394 352.989 21.0918 352.925 20.9959C352.83 20.932 352.67 21.2517 352.574 21.7312Z" fill="#FDFDFD"/>
<path d="M337.716 23.4895C337.524 24.065 337.428 24.5765 337.492 24.6404C337.556 24.7043 337.78 24.3207 337.971 23.7453C338.163 23.1698 338.259 22.6583 338.195 22.5944C338.131 22.5305 337.907 22.9141 337.716 23.4895Z" fill="#FDFDFD"/>
<path d="M320.014 25.4396C319.566 26.8782 319.215 28.125 319.279 28.1889C319.343 28.2529 319.79 27.134 320.269 25.6954C320.749 24.2568 321.068 23.042 321.004 22.978C320.94 22.8821 320.493 24.001 320.014 25.4396Z" fill="#FDFDFD"/>
<path d="M322.059 23.3297C322.059 23.6813 322.155 23.7772 322.25 23.5215C322.346 23.2977 322.314 23.01 322.218 22.9141C322.123 22.7862 322.027 22.978 322.059 23.3297Z" fill="#FDFDFD"/>
<path d="M348.867 35.0622C345.384 47.5939 344.969 48.8406 340.144 61.8199C338.483 66.2955 336.214 72.3376 335.16 75.2148C334.073 78.1239 333.115 80.5535 333.019 80.6494C332.731 80.9052 332.923 80.2658 335.958 70.9629C337.46 66.4234 338.61 62.6511 338.547 62.5552C338.451 62.4913 337.78 64.3774 337.013 66.775C336.022 69.908 335.543 70.9629 335.383 70.5473C335.223 70.1957 335.191 70.3875 335.287 71.0908C335.383 71.6982 335.351 72.0179 335.223 71.7622C335.128 71.5064 334.425 73.4245 333.658 76.046C331.038 84.9972 329.025 90.6236 327.778 92.4778C326.277 94.6837 325.957 95.6427 326.628 95.8985C327.043 96.0583 327.011 96.3141 326.436 97.8805C326.053 98.8716 325.51 100.054 325.19 100.502C324.232 101.941 322.027 106.8 322.027 107.503C322.027 108.334 322.698 108.366 323.401 107.599C324.04 106.896 324.743 105.265 326.5 100.406C328.929 93.7246 328.737 94.4599 322.474 116.742C321.324 120.834 320.493 124.319 320.589 124.478C320.685 124.638 320.589 124.702 320.333 124.606C320.046 124.51 319.566 125.15 318.895 126.652C317.745 129.114 317.585 130.329 318.384 130.169C319.758 129.913 319.694 130.073 326.66 103.539C330.462 89.0252 330.079 90.1441 335.511 76.4615C337.077 72.4655 338.259 69.0129 338.131 68.821C338.003 68.5973 338.035 68.5333 338.227 68.6292C338.387 68.7251 338.994 67.6702 339.569 66.2635C340.144 64.8569 340.687 63.77 340.751 63.8339C340.815 63.8979 340.368 65.5283 339.761 67.4464C339.122 69.3645 338.578 71.3146 338.547 71.7941C338.515 72.2417 338.355 72.6253 338.195 72.5933C337.844 72.5294 336.214 75.6304 335.99 76.7173C335.767 77.9001 336.246 78.3797 336.981 77.6763C337.844 76.9091 338.003 76.4615 340.24 68.0538C341.326 63.9938 342.7 59.1985 343.339 57.3443C343.947 55.4901 344.458 53.6359 344.458 53.1884C344.458 52.7408 345.097 50.2153 345.896 47.5939C346.695 44.9405 347.366 42.5428 347.398 42.2231C347.398 41.9354 347.525 41.6797 347.685 41.6797C347.813 41.6797 347.845 41.5518 347.749 41.36C347.653 41.2001 348.676 37.0762 350.018 32.2489C351.36 27.3897 352.382 23.3616 352.318 23.2977C352.254 23.2018 350.689 28.5086 348.867 35.0622ZM342.477 57.696C341.039 61.8199 338.355 68.5333 338.323 68.0858C338.291 67.4144 343.435 53.6999 343.627 53.9237C343.723 53.9876 343.212 55.6819 342.477 57.696ZM322.985 107.343C322.985 107.439 322.858 107.599 322.666 107.695C322.506 107.791 322.346 107.727 322.346 107.567C322.346 107.375 322.506 107.215 322.666 107.215C322.858 107.215 322.985 107.279 322.985 107.343Z" fill="#FDFDFD"/>
<path d="M288.508 26.3667C288.284 27.07 288.156 27.7413 288.252 27.8053C288.316 27.8692 288.54 27.3577 288.764 26.6224C288.987 25.9191 289.115 25.2478 289.019 25.1839C288.955 25.1199 288.732 25.6314 288.508 26.3667Z" fill="#FDFDFD"/>
<path d="M321.42 25.5675C321.42 25.9191 321.516 26.015 321.611 25.7593C321.707 25.5355 321.675 25.2478 321.579 25.1519C321.484 25.024 321.388 25.2158 321.42 25.5675Z" fill="#FDFDFD"/>
<path d="M335.128 31.0341C334.041 34.3269 332.731 38.1951 332.22 39.6017C331.741 41.0083 329.951 46.1873 328.258 51.1104C322.442 68.0538 320.685 72.8171 319.918 73.8082C318.736 75.3746 317.745 77.8043 318.16 78.2198C318.544 78.6035 319.311 78.092 319.822 77.069C320.014 76.7493 323.017 68.0218 326.532 57.696C330.015 47.4021 333.21 37.9393 333.658 36.7245C334.936 33.144 337.364 25.2478 337.236 25.1199C337.141 25.056 336.214 27.7094 335.128 31.0341ZM320.525 74.1279C320.429 74.4156 320.269 74.5754 320.205 74.4795C320.11 74.3836 320.142 74.1918 320.269 74C320.557 73.4885 320.749 73.5844 320.525 74.1279Z" fill="#FDFDFD"/>
<path d="M256.715 27.1659C256.587 27.6135 256.555 28.061 256.619 28.1569C256.715 28.2209 256.874 27.9012 256.97 27.4217C257.098 26.9741 257.13 26.5265 257.066 26.4306C256.97 26.3667 256.81 26.6864 256.715 27.1659Z" fill="#FDFDFD"/>
<path d="M320.94 27.1659C320.813 27.6135 320.781 28.061 320.845 28.1569C320.94 28.2209 321.1 27.9012 321.196 27.4217C321.324 26.9741 321.356 26.5265 321.292 26.4306C321.196 26.3667 321.036 26.6864 320.94 27.1659Z" fill="#FDFDFD"/>
<path d="M299.851 28.093C299.564 28.9242 299.628 29.116 300.011 28.4766C300.203 28.1569 300.299 27.8053 300.203 27.7413C300.139 27.6454 299.979 27.8053 299.851 28.093Z" fill="#FDFDFD"/>
<path d="M362.288 42.5748C352.063 74.5434 349.123 83.3348 347.909 85.7325C346.599 88.226 346.375 89.1211 346.95 89.4728C347.302 89.6966 345.864 93.8845 344.969 95.1312C344.011 96.5379 343.052 98.8716 343.244 99.479C343.403 99.9585 341.966 103.699 335.223 120.163C334.457 122.081 333.402 124.159 332.923 124.798C331.964 126.013 330.654 128.411 330.654 128.954C330.654 129.561 331.9 129.274 332.38 128.57C332.667 128.187 333.274 126.844 333.722 125.597C334.201 124.383 334.712 123.2 334.872 123.008C335 122.816 335.479 121.665 335.894 120.45C337.492 115.751 343.883 99.9905 344.426 99.2552C344.745 98.8396 345.576 96.7617 346.279 94.6198C346.982 92.5098 348.196 89.0572 348.995 86.9792C349.826 84.9013 350.369 83.0471 350.273 82.8553C350.114 82.6315 350.209 82.5995 350.465 82.7594C350.785 82.9512 350.848 82.8873 350.657 82.4397C350.561 82.12 350.721 81.0011 351.072 79.9142C351.424 78.8272 352.414 75.6623 353.309 72.8491C363.917 38.8345 367.113 28.4766 366.985 28.3807C366.921 28.3168 364.812 34.7105 362.288 42.5748ZM332.252 128.123C332.252 128.187 331.996 128.443 331.709 128.666C331.197 129.082 331.165 129.05 331.581 128.538C331.996 128.027 332.252 127.867 332.252 128.123Z" fill="#FDFDFD"/>
<path d="M318.863 28.7963C318.831 28.9881 318.736 29.4357 318.64 29.7553C318.48 30.2988 318.48 30.2988 318.831 29.7553C319.023 29.4357 319.119 29.0201 319.023 28.7963C318.927 28.5086 318.863 28.5086 318.863 28.7963Z" fill="#FDFDFD"/>
<path d="M320.301 29.4037C320.173 29.8513 320.142 30.2988 320.205 30.3947C320.301 30.4587 320.461 30.139 320.557 29.6594C320.685 29.2119 320.717 28.7643 320.653 28.6684C320.557 28.6045 320.397 28.9242 320.301 29.4037Z" fill="#FDFDFD"/>
<path d="M287.23 30.5226C287.006 31.2259 286.878 31.8972 286.974 31.9612C287.038 32.0251 287.262 31.5136 287.485 30.7783C287.709 30.075 287.837 29.4037 287.741 29.3398C287.677 29.2758 287.453 29.7873 287.23 30.5226Z" fill="#FDFDFD"/>
<path d="M298.733 31.0021C298.35 31.9932 298.094 32.8883 298.158 32.9523C298.222 33.0162 298.605 32.2489 298.989 31.2579C299.372 30.2669 299.628 29.3717 299.564 29.3078C299.5 29.2438 299.116 30.0111 298.733 31.0021Z" fill="#FDFDFD"/>
<path d="M346.503 29.6914C346.215 30.5226 346.279 30.7144 346.663 30.0751C346.854 29.7554 346.95 29.4037 346.854 29.3398C346.79 29.2439 346.631 29.4037 346.503 29.6914Z" fill="#FDFDFD"/>
<path d="M251.794 42.8945C249.653 49.7038 247.32 57.0566 246.617 59.2624C245.914 61.4683 244.732 65.1127 243.997 67.4144C243.262 69.6842 242.495 71.7941 242.272 72.0499C241.473 73.0089 240.227 75.6943 240.227 76.3976C240.227 77.3887 240.962 77.3887 241.601 76.4296C242.112 75.6623 256.012 30.8103 255.788 30.6185C255.724 30.5546 253.935 36.0851 251.794 42.8945ZM242.176 73.6803C242.016 74.0959 241.856 74.2877 241.856 74.0639C241.824 73.5844 242.176 72.6253 242.336 72.7852C242.432 72.8491 242.336 73.2647 242.176 73.6803Z" fill="#FDFDFD"/>
<path d="M274.768 31.0021C274.768 31.3538 274.864 31.4497 274.96 31.194C275.056 30.9702 275.024 30.6824 274.928 30.5865C274.832 30.4587 274.736 30.6505 274.768 31.0021Z" fill="#FDFDFD"/>
<path d="M318.224 30.7144C318.192 30.9062 318.097 31.3538 318.001 31.6735C317.841 32.2169 317.841 32.2169 318.192 31.6735C318.384 31.3538 318.48 30.9382 318.384 30.7144C318.288 30.4267 318.224 30.4267 318.224 30.7144Z" fill="#FDFDFD"/>
<path d="M247.768 31.2899C247.48 32.121 247.544 32.3129 247.927 31.6735C248.119 31.3538 248.215 31.0021 248.119 30.9382C248.055 30.8423 247.896 31.0021 247.768 31.2899Z" fill="#FDFDFD"/>
<path d="M314.134 51.0465C310.939 62.1716 307.456 74.2557 306.338 77.9641C305.251 81.6405 304.325 85.157 304.293 85.7324C304.261 86.3079 304.069 86.9473 303.814 87.171C303.494 87.4907 303.494 87.4268 303.814 86.8194C304.005 86.4038 304.101 85.9882 304.037 85.9243C303.941 85.8284 303.43 86.5636 302.855 87.5547C301.673 89.6326 301.225 91.8704 301.96 91.8704C303.174 91.8704 303.462 91.1032 307.744 75.5664C312.409 58.8149 316.435 44.3331 318.256 37.9074C319.311 34.1351 320.11 31.0021 320.046 30.9382C319.982 30.8743 317.298 39.9214 314.134 51.0465Z" fill="#FDFDFD"/>
<path d="M343.435 37.5877C334.744 59.9018 328.929 74.2237 328.258 74.927C327.363 75.8861 326.021 78.7952 325.733 80.3617C325.606 81.097 325.638 81.3208 325.829 81.0331C325.989 80.7773 326.596 80.042 327.139 79.4346C327.938 78.5395 330.079 73.2327 337.236 54.6589C342.221 41.6477 346.247 30.9702 346.215 30.9062C346.151 30.8423 344.905 33.8793 343.435 37.5877ZM328.833 75.4066C328.737 75.6943 328.577 75.8541 328.513 75.7582C328.417 75.6623 328.449 75.4705 328.577 75.2787C328.865 74.7672 329.056 74.8631 328.833 75.4066ZM328.13 76.4935C327.874 76.6534 327.81 76.9411 327.938 77.1968C328.13 77.5485 328.098 77.5485 327.778 77.2608C327.331 76.8771 327.587 76.2058 328.194 76.2058C328.449 76.2058 328.417 76.3017 328.13 76.4935ZM327.459 78.5715C327.459 78.6354 327.203 78.8912 326.916 79.1149C326.404 79.5305 326.372 79.4986 326.788 78.9871C327.203 78.4756 327.459 78.3157 327.459 78.5715Z" fill="#FDFDFD"/>
<path d="M247.129 32.8883C246.841 33.7195 246.905 33.9113 247.288 33.2719C247.48 32.9522 247.576 32.6006 247.48 32.5366C247.416 32.4407 247.256 32.6006 247.129 32.8883Z" fill="#FDFDFD"/>
<path d="M285.377 36.6606C282.852 44.7487 276.589 64.8569 275.95 66.9349C275.599 68.0858 274.8 69.8121 274.225 70.7711C272.787 73.1368 272.372 74.5754 273.043 74.8312C273.682 75.0869 274.289 74.2557 274.864 72.3696C275.343 70.867 278.091 61.724 281.638 49.9915C282.788 46.2192 284.45 40.7526 285.313 37.9074C286.207 35.0302 286.878 32.6006 286.814 32.5367C286.751 32.4727 286.08 34.3269 285.377 36.6606Z" fill="#FDFDFD"/>
<path d="M274.129 33.2399C274.129 33.5916 274.225 33.6875 274.321 33.4318C274.417 33.208 274.385 32.9203 274.289 32.8243C274.193 32.6965 274.097 32.8883 274.129 33.2399Z" fill="#FDFDFD"/>
<path d="M292.79 46.411C282.884 71.922 276.845 86.9153 276.11 87.8104C275.727 88.3219 275.375 88.6416 275.375 88.5457C275.375 88.4178 275.886 86.5956 276.526 84.4857C277.133 82.3438 277.612 80.5535 277.516 80.4896C277.452 80.4257 276.781 82.5036 276.014 85.0931C275.247 87.6826 274.449 90.1441 274.257 90.5917C274.033 91.0393 273.714 92.0942 273.522 92.9894C273.33 93.8525 271.86 98.9035 270.231 104.178C268.601 109.453 267.291 114.025 267.259 114.312C267.259 114.6 267.163 114.792 267.035 114.696C266.46 114.344 264.639 118.436 264.99 119.268C265.342 120.227 266.62 118.404 267.355 115.911C267.706 114.728 269.304 109.229 270.902 103.699C273.33 95.2911 273.969 93.5328 274.608 93.0213C275.056 92.7016 275.599 92.0303 275.855 91.5188C276.142 91.0073 280.392 79.9781 285.313 67.0308C290.233 54.0515 295.122 41.2321 296.177 38.5148C297.231 35.8294 298.03 33.5596 297.966 33.4957C297.902 33.4318 295.57 39.2181 292.79 46.411ZM276.685 88.258C276.302 88.8974 276.238 88.7056 276.526 87.8744C276.653 87.5866 276.813 87.4268 276.877 87.5227C276.973 87.5866 276.877 87.9383 276.685 88.258ZM275.375 91.6786C275.375 91.7426 275.12 91.9983 274.832 92.2221C274.321 92.6377 274.289 92.6057 274.704 92.0942C275.12 91.5827 275.375 91.4229 275.375 91.6786Z" fill="#FDFDFD"/>
<path d="M273.49 35.4777C273.49 35.8294 273.586 35.9253 273.682 35.6695C273.778 35.4458 273.746 35.1581 273.65 35.0621C273.554 34.9343 273.458 35.1261 273.49 35.4777Z" fill="#FDFDFD"/>
<path d="M279.242 37.1082C279.21 37.3 279.114 37.7475 279.018 38.0672C278.858 38.6107 278.858 38.6107 279.21 38.0672C279.401 37.7475 279.497 37.3319 279.401 37.1082C279.305 36.8204 279.242 36.8204 279.242 37.1082Z" fill="#FDFDFD"/>
<path d="M326.245 43.6937C325.158 47.434 322.57 56.3533 320.461 63.5782C315.604 80.2019 315.093 81.8003 314.134 83.3348C313.08 84.9972 312.377 87.0432 312.601 87.7465C312.792 88.3219 312.121 90.3679 306.306 106.896C301.353 121.026 300.235 123.967 299.66 124.638C298.701 125.725 297.71 127.995 297.806 128.89L297.902 129.753L298.733 128.954C299.308 128.379 300.139 126.333 301.641 121.921C308.99 100.15 313.24 88.0981 313.751 87.5547C314.07 87.203 315.189 83.9422 316.243 80.3617C317.298 76.7493 318.416 72.8811 318.768 71.7302C319.119 70.5793 319.502 69.1407 319.63 68.5333C319.758 67.9259 321.803 60.6051 324.168 52.2933C326.532 43.9495 328.417 37.1082 328.354 37.0442C328.29 36.9803 327.331 39.9534 326.245 43.6937ZM299.532 126.141C299.244 126.524 299.021 126.748 299.021 126.62C299.021 126.269 299.787 125.118 299.915 125.278C299.979 125.342 299.819 125.725 299.532 126.141ZM298.733 128.411C298.413 128.698 298.381 128.666 298.573 128.219C298.669 127.899 298.861 127.739 298.957 127.835C299.052 127.931 298.957 128.187 298.733 128.411Z" fill="#FDFDFD"/>
<path d="M272.691 38.0352C272.563 38.4828 272.531 38.9304 272.595 39.0263C272.691 39.0902 272.851 38.7705 272.947 38.291C273.075 37.8434 273.107 37.3959 273.043 37.3C272.947 37.236 272.787 37.5557 272.691 38.0352Z" fill="#FDFDFD"/>
<path d="M274.768 38.9943C274.768 39.346 274.864 39.4419 274.96 39.1861C275.056 38.9623 275.024 38.6746 274.928 38.5787C274.832 38.4508 274.736 38.6426 274.768 38.9943Z" fill="#FDFDFD"/>
<path d="M272.723 56.8008C262.562 87.203 260.517 92.8295 259.622 92.8295C259.463 92.8295 259.431 92.7336 259.495 92.5737C259.782 92.1262 273.17 45.452 273.043 45.3241C272.979 45.2601 271.253 50.9506 269.208 57.9517C265.502 70.5793 261.22 84.9332 259.335 91.0712C258.792 92.8295 258.312 94.6197 258.28 95.0673C258.248 95.5149 258.184 96.0583 258.152 96.2501C258.152 96.4739 257.961 96.6657 257.801 96.6657C257.577 96.6657 257.577 96.4419 257.801 95.9944C258.44 94.8435 257.897 95.0034 257.226 96.1542C256.235 97.8486 255.564 99.9585 255.916 100.342C256.427 100.854 257.29 100.054 257.833 98.5838C258.121 97.8166 258.632 97.0813 258.951 96.9534C260.229 96.5059 259.814 97.6248 268.665 70.4514C271.157 62.8109 274.481 52.6129 276.078 47.8176C277.644 43.0223 278.89 39.0263 278.826 38.9623C278.762 38.8984 276.014 46.9225 272.723 56.8008ZM261.092 92.1901C260.996 92.5737 260.837 92.7975 260.741 92.7016C260.581 92.5098 260.9 91.5507 261.124 91.5507C261.188 91.5507 261.188 91.8385 261.092 92.1901ZM259.399 96.1862C259.175 96.4739 258.919 96.6018 258.792 96.5059C258.696 96.41 258.824 96.1862 259.079 96.0263C259.75 95.5788 259.846 95.6427 259.399 96.1862Z" fill="#FDFDFD"/>
<path d="M274.129 41.2321C274.129 41.5838 274.225 41.6797 274.321 41.4239C274.417 41.2001 274.385 40.9124 274.289 40.8165C274.193 40.6886 274.097 40.8804 274.129 41.2321Z" fill="#FDFDFD"/>
<path d="M298.413 41.8715C298.413 42.2231 298.509 42.319 298.605 42.0633C298.701 41.8395 298.669 41.5518 298.573 41.4559C298.477 41.328 298.381 41.5198 298.413 41.8715Z" fill="#FDFDFD"/>
<path d="M262.626 42.1912C262.626 42.5428 262.722 42.6387 262.818 42.383C262.913 42.1592 262.882 41.8715 262.786 41.7756C262.69 41.6477 262.594 41.8395 262.626 42.1912Z" fill="#FDFDFD"/>
<path d="M266.62 42.7986C266.332 43.6298 266.396 43.8216 266.78 43.1822C266.972 42.8625 267.067 42.5108 266.972 42.4469C266.908 42.351 266.748 42.5108 266.62 42.7986Z" fill="#FDFDFD"/>
<path d="M348.101 43.9814C347.845 44.7487 347.238 46.3471 346.79 47.5939C346.343 48.8087 346.119 49.6718 346.279 49.512C346.695 49.0964 348.931 42.9264 348.74 42.7346C348.676 42.6707 348.388 43.2142 348.101 43.9814Z" fill="#FDFDFD"/>
<path d="M273.33 43.7896C273.202 44.2372 273.17 44.6847 273.234 44.7806C273.33 44.8446 273.49 44.5249 273.586 44.0454C273.714 43.5978 273.746 43.1503 273.682 43.0544C273.586 42.9904 273.426 43.3101 273.33 43.7896Z" fill="#FDFDFD"/>
<path d="M331.645 43.7896C331.645 44.1413 331.74 44.2372 331.836 43.9814C331.932 43.7576 331.9 43.4699 331.804 43.374C331.709 43.2461 331.613 43.4379 331.645 43.7896Z" fill="#FDFDFD"/>
<path d="M297.615 44.429C297.487 44.8765 297.455 45.3241 297.519 45.42C297.615 45.4839 297.774 45.1643 297.87 44.6847C297.998 44.2372 298.03 43.7896 297.966 43.6937C297.87 43.6298 297.71 43.9494 297.615 44.429Z" fill="#FDFDFD"/>
<path d="M265.981 44.397C265.693 45.2282 265.757 45.42 266.141 44.7806C266.332 44.4609 266.428 44.1093 266.332 44.0454C266.269 43.9494 266.109 44.1093 265.981 44.397Z" fill="#FDFDFD"/>
<path d="M298.573 45.6758C298.286 46.5069 298.35 46.6987 298.733 46.0594C298.925 45.7397 299.021 45.388 298.925 45.3241C298.861 45.2282 298.701 45.388 298.573 45.6758Z" fill="#FDFDFD"/>
<path d="M264.543 48.1054C264 49.544 263.584 50.7588 263.648 50.8227C263.712 50.8866 264.224 49.7677 264.799 48.3611C265.342 46.9225 265.757 45.7077 265.693 45.6438C265.63 45.5799 265.118 46.6988 264.543 48.1054Z" fill="#FDFDFD"/>
<path d="M331.006 46.0274C331.006 46.379 331.101 46.4749 331.197 46.2192C331.293 45.9954 331.261 45.7077 331.165 45.6118C331.07 45.4839 330.974 45.6757 331.006 46.0274Z" fill="#FDFDFD"/>
<path d="M261.028 47.1463C260.805 47.8496 260.677 48.5209 260.773 48.5849C260.837 48.6488 261.06 48.1373 261.284 47.402C261.508 46.6987 261.635 46.0274 261.539 45.9635C261.476 45.8995 261.252 46.411 261.028 47.1463Z" fill="#FDFDFD"/>
<path d="M296.656 47.6258C296.528 48.0734 296.496 48.521 296.56 48.6169C296.656 48.6808 296.816 48.3611 296.912 47.8816C297.039 47.434 297.071 46.9865 297.007 46.8906C296.912 46.8266 296.752 47.1463 296.656 47.6258Z" fill="#FDFDFD"/>
<path d="M297.934 47.2742C297.647 48.1054 297.71 48.2972 298.094 47.6578C298.286 47.3381 298.381 46.9865 298.286 46.9225C298.222 46.8266 298.062 46.9865 297.934 47.2742Z" fill="#FDFDFD"/>
<path d="M285.632 47.6258C285.632 47.9775 285.728 48.0734 285.824 47.8177C285.92 47.5939 285.888 47.3062 285.792 47.2102C285.696 47.0824 285.6 47.2742 285.632 47.6258Z" fill="#FDFDFD"/>
<path d="M330.367 48.2652C330.367 48.6169 330.462 48.7128 330.558 48.457C330.654 48.2332 330.622 47.9455 330.526 47.8496C330.43 47.7217 330.335 47.9135 330.367 48.2652Z" fill="#FDFDFD"/>
<path d="M297.295 48.8726C297.007 49.7038 297.071 49.8956 297.455 49.2562C297.647 48.9366 297.742 48.5849 297.647 48.521C297.583 48.4251 297.423 48.5849 297.295 48.8726Z" fill="#FDFDFD"/>
<path d="M295.857 50.3431C295.633 51.0465 295.506 51.7178 295.602 51.7817C295.665 51.8457 295.889 51.3342 296.113 50.5989C296.336 49.8956 296.464 49.2242 296.368 49.1603C296.304 49.0964 296.081 49.6079 295.857 50.3431Z" fill="#FDFDFD"/>
<path d="M329.887 49.8637C329.759 50.3112 329.728 50.7588 329.791 50.8547C329.887 50.9186 330.047 50.5989 330.143 50.1194C330.271 49.6718 330.303 49.2243 330.239 49.1284C330.143 49.0644 329.983 49.3841 329.887 49.8637Z" fill="#FDFDFD"/>
<path d="M284.833 50.1833C284.706 50.6309 284.674 51.0784 284.737 51.1744C284.833 51.2383 284.993 50.9186 285.089 50.4391C285.217 49.9915 285.249 49.544 285.185 49.4481C285.089 49.3841 284.929 49.7038 284.833 50.1833Z" fill="#FDFDFD"/>
<path d="M310.236 50.1833C310.236 50.535 310.332 50.6309 310.428 50.3751C310.524 50.1514 310.492 49.8636 310.396 49.7677C310.3 49.6399 310.204 49.8317 310.236 50.1833Z" fill="#FDFDFD"/>
<path d="M259.111 50.503C259.111 50.8547 259.207 50.9506 259.303 50.6948C259.399 50.471 259.367 50.1833 259.271 50.0874C259.175 49.9595 259.079 50.1514 259.111 50.503Z" fill="#FDFDFD"/>
<path d="M296.656 50.471C296.368 51.3022 296.432 51.494 296.816 50.8547C297.007 50.535 297.103 50.1833 297.007 50.1194C296.944 50.0235 296.784 50.1833 296.656 50.471Z" fill="#FDFDFD"/>
<path d="M345.544 50.471C345.257 51.3022 345.321 51.494 345.704 50.8547C345.896 50.535 345.992 50.1833 345.896 50.1194C345.832 50.0235 345.672 50.1833 345.544 50.471Z" fill="#FDFDFD"/>
<path d="M253.2 51.7498C252.912 52.581 252.976 52.7728 253.36 52.1334C253.551 51.8137 253.647 51.4621 253.551 51.3981C253.487 51.3022 253.328 51.4621 253.2 51.7498Z" fill="#FDFDFD"/>
<path d="M258.632 52.1014C258.504 52.549 258.472 52.9966 258.536 53.0925C258.632 53.1564 258.792 52.8367 258.887 52.3572C259.015 51.9096 259.047 51.4621 258.983 51.3662C258.887 51.3022 258.728 51.6219 258.632 52.1014Z" fill="#FDFDFD"/>
<path d="M323.497 72.3696C318.512 89.8564 317.234 93.9484 316.083 96.1862C314.614 99.0314 314.454 99.6708 315.029 100.022C315.604 100.406 316.595 99.1593 317.074 97.4969C318.672 91.6786 320.525 84.9972 323.624 73.6483C325.574 66.5193 327.746 58.655 328.449 56.1295C329.184 53.604 329.695 51.494 329.632 51.4301C329.568 51.3662 326.82 60.7969 323.497 72.3696ZM316.946 96.0583C316.786 96.4739 316.627 96.6657 316.627 96.4419C316.595 95.9624 316.946 95.0034 317.106 95.1632C317.202 95.2271 317.106 95.6427 316.946 96.0583Z" fill="#FDFDFD"/>
<path d="M296.017 52.0695C295.729 52.9007 295.793 53.0925 296.177 52.4531C296.368 52.1334 296.464 51.7818 296.368 51.7178C296.305 51.6219 296.145 51.7818 296.017 52.0695Z" fill="#FDFDFD"/>
<path d="M309.597 52.4211C309.597 52.7728 309.693 52.8687 309.789 52.6129C309.885 52.3892 309.853 52.1014 309.757 52.0055C309.661 51.8777 309.565 52.0695 309.597 52.4211Z" fill="#FDFDFD"/>
<path d="M283.875 53.3802C283.747 53.8278 283.715 54.2753 283.779 54.3712C283.875 54.4352 284.035 54.1155 284.13 53.636C284.258 53.1884 284.29 52.7408 284.226 52.6449C284.13 52.581 283.971 52.9007 283.875 53.3802Z" fill="#FDFDFD"/>
<path d="M294.132 56.1614C293.62 57.7918 290.553 65.5602 287.358 73.4884C278.922 94.1402 278.539 95.0673 277.228 96.8256C275.791 98.7117 275.152 100.406 275.631 100.886C276.43 101.685 277.74 98.9035 284.45 81.9921C288.284 72.2736 291.48 64.4094 291.544 64.4413C291.639 64.5692 290.585 68.0857 284.418 88.3219C281.51 97.7846 279.785 102.964 279.21 103.827C277.931 105.745 277.101 108.11 277.548 108.558C277.995 109.006 278.73 108.43 279.337 107.247C279.561 106.8 280.871 102.612 282.213 97.9445C283.587 93.277 285.377 87.1071 286.239 84.1979C287.102 81.2888 288.955 74.8951 290.393 69.9719C292.566 62.4273 293.557 59.3903 295.665 53.6679C295.825 53.2203 295.793 53.1564 295.57 53.4761C295.378 53.7318 295.218 53.7638 295.154 53.572C295.09 53.3802 294.611 54.563 294.132 56.1614ZM278.027 96.8256C277.931 97.1133 277.772 97.2731 277.708 97.1772C277.612 97.0813 277.644 96.8895 277.772 96.6977C278.059 96.1862 278.251 96.2821 278.027 96.8256ZM276.494 100.182C276.398 100.342 276.11 100.502 275.918 100.502C275.695 100.502 275.727 100.374 276.014 100.182C276.621 99.7986 276.749 99.7986 276.494 100.182ZM279.849 104.338C279.849 104.498 279.689 104.658 279.497 104.658C279.337 104.658 279.273 104.498 279.369 104.338C279.465 104.146 279.625 104.019 279.721 104.019C279.785 104.019 279.849 104.146 279.849 104.338Z" fill="#FDFDFD"/>
<path d="M309.277 53.6999C309.277 54.0515 309.373 54.1474 309.469 53.8917C309.565 53.6679 309.533 53.3802 309.437 53.2843C309.341 53.1564 309.246 53.3482 309.277 53.6999Z" fill="#FDFDFD"/>
<path d="M258.152 54.0196C258.152 54.3712 258.248 54.4671 258.344 54.2114C258.44 53.9876 258.408 53.6999 258.312 53.604C258.216 53.4761 258.121 53.6679 258.152 54.0196Z" fill="#FDFDFD"/>
<path d="M345.065 54.3392C345.065 54.6909 345.161 54.7868 345.257 54.531C345.353 54.3073 345.321 54.0196 345.225 53.9237C345.129 53.7958 345.033 53.9876 345.065 54.3392Z" fill="#FDFDFD"/>
<path d="M251.762 55.7778C251.57 56.3533 251.474 56.8648 251.538 56.9287C251.602 56.9926 251.826 56.609 252.017 56.0336C252.209 55.4582 252.305 54.9467 252.241 54.8827C252.177 54.8188 251.954 55.2024 251.762 55.7778Z" fill="#FDFDFD"/>
<path d="M308.638 55.9377C308.638 56.2893 308.734 56.3852 308.83 56.1295C308.926 55.9057 308.894 55.618 308.798 55.5221C308.702 55.3942 308.606 55.586 308.638 55.9377Z" fill="#FDFDFD"/>
<path d="M257.513 56.2574C257.513 56.609 257.609 56.7049 257.705 56.4492C257.801 56.2254 257.769 55.9377 257.673 55.8418C257.577 55.7139 257.481 55.9057 257.513 56.2574Z" fill="#FDFDFD"/>
<path d="M280.647 64.1536C277.995 73.0089 271.573 94.2042 269.304 101.461C268.569 103.827 267.706 106.128 267.387 106.576C266.301 108.111 265.47 110.061 265.47 111.052C265.47 112.202 265.757 112.266 266.652 111.275C267.355 110.572 267.802 109.165 271.189 97.6248C272.244 94.0123 275.407 83.175 278.251 73.5204C281.095 63.8979 283.364 55.9377 283.268 55.8738C283.204 55.8098 282.021 59.5182 280.647 64.1536ZM267.738 107.311C267.419 107.599 267.387 107.567 267.579 107.119C267.675 106.8 267.866 106.64 267.962 106.736C268.058 106.832 267.962 107.088 267.738 107.311Z" fill="#FDFDFD"/>
<path d="M344.266 56.8968C344.138 57.3443 344.106 57.7919 344.17 57.8878C344.266 57.9517 344.426 57.632 344.522 57.1525C344.65 56.7049 344.682 56.2574 344.618 56.1615C344.522 56.0975 344.362 56.4172 344.266 56.8968Z" fill="#FDFDFD"/>
<path d="M308.159 57.5361C308.031 57.9837 307.999 58.4312 308.063 58.5272C308.159 58.5911 308.319 58.2714 308.415 57.7919C308.543 57.3443 308.575 56.8967 308.511 56.8008C308.415 56.7369 308.255 57.0566 308.159 57.5361Z" fill="#FDFDFD"/>
<path d="M349.379 57.8238C349.091 58.655 349.155 58.8469 349.538 58.2075C349.73 57.8878 349.826 57.5361 349.73 57.4722C349.666 57.3763 349.506 57.5361 349.379 57.8238Z" fill="#FDFDFD"/>
<path d="M256.874 58.4952C256.874 58.8468 256.97 58.9427 257.066 58.687C257.162 58.4632 257.13 58.1755 257.034 58.0796C256.938 57.9517 256.842 58.1435 256.874 58.4952Z" fill="#FDFDFD"/>
<path d="M343.627 59.1346C343.499 59.5821 343.467 60.0297 343.531 60.1256C343.627 60.1895 343.787 59.8698 343.883 59.3903C344.011 58.9427 344.043 58.4952 343.979 58.3993C343.883 58.3353 343.723 58.655 343.627 59.1346Z" fill="#FDFDFD"/>
<path d="M348.74 59.4223C348.452 60.2535 348.516 60.4453 348.899 59.8059C349.091 59.4862 349.187 59.1345 349.091 59.0706C349.027 58.9747 348.867 59.1345 348.74 59.4223Z" fill="#FDFDFD"/>
<path d="M330.526 60.0936C330.398 60.5412 330.367 60.9887 330.43 61.0846C330.526 61.1486 330.686 60.8289 330.782 60.3494C330.91 59.9018 330.942 59.4542 330.878 59.3583C330.782 59.2944 330.622 59.6141 330.526 60.0936Z" fill="#FDFDFD"/>
<path d="M338.834 61.0207C338.738 61.3084 338.642 61.724 338.674 61.9158C338.674 62.1396 338.834 61.9478 338.994 61.5322C339.154 61.1166 339.25 60.701 339.154 60.6371C339.09 60.5731 338.962 60.733 338.834 61.0207Z" fill="#FDFDFD"/>
<path d="M348.101 61.0207C347.813 61.8519 347.877 62.0437 348.26 61.4043C348.452 61.0846 348.548 60.733 348.452 60.669C348.388 60.5731 348.228 60.733 348.101 61.0207Z" fill="#FDFDFD"/>
<path d="M276.653 68.5973C272.979 78.5395 262.594 105.809 261.156 109.293C260.517 110.86 259.942 112.49 259.91 112.906C259.846 113.289 259.686 113.737 259.558 113.865C259.431 113.993 259.431 113.737 259.558 113.321C259.942 112.075 259.143 112.842 258.28 114.568C257.066 116.934 257.354 117.893 258.855 116.55C259.463 116.039 259.494 116.039 259.143 116.678C258.951 117.03 257.897 119.683 256.81 122.56C255.628 125.661 254.318 128.506 253.583 129.529C252.209 131.512 251.57 133.398 252.049 133.877C252.273 134.101 252.657 133.941 253.168 133.43C253.935 132.63 254.638 130.808 261.06 112.682C264.927 101.653 271.125 84.6135 275.759 72.1138C277.868 66.4234 279.497 61.692 279.433 61.6281C279.369 61.5322 278.091 64.6651 276.653 68.5973ZM254.702 129.114C254.606 129.402 254.446 129.561 254.382 129.466C254.286 129.37 254.318 129.178 254.446 128.986C254.733 128.475 254.925 128.57 254.702 129.114Z" fill="#FDFDFD"/>
<path d="M337.396 62.3314C337.396 62.683 337.492 62.7789 337.588 62.5232C337.684 62.2994 337.652 62.0117 337.556 61.9158C337.46 61.7879 337.364 61.9797 337.396 62.3314Z" fill="#FDFDFD"/>
<path d="M347.461 62.6191C347.174 63.4503 347.238 63.6422 347.621 63.0028C347.813 62.6831 347.909 62.3314 347.813 62.2675C347.749 62.1716 347.589 62.3314 347.461 62.6191Z" fill="#FDFDFD"/>
<path d="M254.957 63.2905C254.957 63.6421 255.053 63.738 255.149 63.4823C255.245 63.2585 255.213 62.9708 255.117 62.8749C255.021 62.747 254.925 62.9388 254.957 63.2905Z" fill="#FDFDFD"/>
<path d="M294.26 63.6102C294.26 63.9618 294.355 64.0577 294.451 63.802C294.547 63.5782 294.515 63.2905 294.419 63.1946C294.323 63.0667 294.228 63.2585 294.26 63.6102Z" fill="#FDFDFD"/>
<path d="M254.318 65.5283C254.318 65.8799 254.414 65.9758 254.51 65.7201C254.606 65.4963 254.574 65.2086 254.478 65.1127C254.382 64.9848 254.286 65.1766 254.318 65.5283Z" fill="#FDFDFD"/>
<path d="M293.461 66.1677C293.333 66.6152 293.301 67.0628 293.365 67.1587C293.461 67.2226 293.62 66.9029 293.716 66.4234C293.844 65.9759 293.876 65.5283 293.812 65.4324C293.716 65.3685 293.557 65.6881 293.461 66.1677Z" fill="#FDFDFD"/>
<path d="M336.438 65.8479C336.438 66.1996 336.533 66.2955 336.629 66.0398C336.725 65.816 336.693 65.5283 336.597 65.4324C336.502 65.3045 336.406 65.4963 336.438 65.8479Z" fill="#FDFDFD"/>
<path d="M336.118 67.1267C336.118 67.4784 336.214 67.5743 336.31 67.3185C336.406 67.0947 336.374 66.807 336.278 66.7111C336.182 66.5832 336.086 66.775 336.118 67.1267Z" fill="#FDFDFD"/>
<path d="M292.822 68.4055C292.694 68.853 292.662 69.3006 292.726 69.3965C292.822 69.4604 292.981 69.1407 293.077 68.6612C293.205 68.2137 293.237 67.7661 293.173 67.6702C293.077 67.6063 292.917 67.9259 292.822 68.4055Z" fill="#FDFDFD"/>
<path d="M335.479 69.3645C335.479 69.7162 335.575 69.8121 335.671 69.5563C335.767 69.3325 335.735 69.0448 335.639 68.9489C335.543 68.821 335.447 69.0128 335.479 69.3645Z" fill="#FDFDFD"/>
<path d="M280.52 70.0039C280.52 70.3555 280.616 70.4514 280.711 70.1957C280.807 69.9719 280.775 69.6842 280.679 69.5883C280.584 69.4604 280.488 69.6522 280.52 70.0039Z" fill="#FDFDFD"/>
<path d="M292.023 71.2826C292.023 71.6343 292.119 71.7302 292.215 71.4744C292.31 71.2507 292.278 70.9629 292.183 70.867C292.087 70.7392 291.991 70.931 292.023 71.2826Z" fill="#FDFDFD"/>
<path d="M279.721 72.5614C279.593 73.009 279.561 73.4565 279.625 73.5524C279.721 73.6164 279.881 73.2967 279.976 72.8172C280.104 72.3696 280.136 71.922 280.072 71.8261C279.976 71.7622 279.817 72.0819 279.721 72.5614Z" fill="#FDFDFD"/>
<path d="M296.976 72.5294C296.688 73.3606 296.752 73.5524 297.135 72.913C297.327 72.5933 297.423 72.2417 297.327 72.1778C297.263 72.0818 297.103 72.2417 296.976 72.5294Z" fill="#FDFDFD"/>
<path d="M345.544 73.5204C345.416 73.968 345.384 74.4156 345.448 74.5115C345.544 74.5754 345.704 74.2557 345.8 73.7762C345.928 73.3286 345.96 72.8811 345.896 72.7852C345.8 72.7212 345.64 73.0409 345.544 73.5204Z" fill="#FDFDFD"/>
<path d="M291.032 74.6713C290.809 75.5984 289.786 78.9231 288.764 82.0561C287.709 85.221 286.974 87.9383 287.102 88.0982C287.23 88.3219 287.134 88.3539 286.878 88.1941C286.559 88.0022 286.495 88.0662 286.655 88.5137C286.782 88.8334 286.335 90.8794 285.568 93.4369C283.907 98.9675 282.661 103.155 281.638 106.544C281.191 108.047 280.903 109.389 280.999 109.517C281.095 109.677 280.999 109.741 280.775 109.709C280.296 109.581 278.89 112.234 278.794 113.417C278.73 114.44 279.657 114.888 280.008 113.993C280.679 112.362 282.405 107.024 282.405 106.576C282.405 106.033 290.042 79.1469 290.809 77.005C291.288 75.6623 291.831 73.0089 291.607 73.0089C291.543 73.0089 291.288 73.7762 291.032 74.6713ZM280.52 111.084C280.36 111.499 280.2 111.691 280.2 111.467C280.168 110.988 280.52 110.029 280.679 110.189C280.775 110.252 280.679 110.668 280.52 111.084ZM279.625 113.449C279.529 113.737 279.369 113.897 279.305 113.801C279.21 113.705 279.242 113.513 279.369 113.321C279.657 112.81 279.849 112.906 279.625 113.449Z" fill="#FDFDFD"/>
<path d="M353.852 74.1278C353.564 74.959 353.628 75.1508 354.012 74.5115C354.204 74.1918 354.299 73.8401 354.204 73.7762C354.14 73.6803 353.98 73.8401 353.852 74.1278Z" fill="#FDFDFD"/>
<path d="M278.443 76.8771C277.963 78.4756 277.644 79.8502 277.708 79.9142C277.772 79.9781 278.219 78.7313 278.698 77.1329C279.178 75.5345 279.529 74.1598 279.433 74.0959C279.369 74.0319 278.922 75.2787 278.443 76.8771Z" fill="#FDFDFD"/>
<path d="M344.586 76.7173C344.458 77.1649 344.426 77.6124 344.49 77.7083C344.586 77.7723 344.745 77.4526 344.841 76.9731C344.969 76.5255 345.001 76.0779 344.937 75.982C344.841 75.9181 344.682 76.2378 344.586 76.7173Z" fill="#FDFDFD"/>
<path d="M294.899 78.4756C294.547 79.5625 294.291 80.5216 294.355 80.5855C294.419 80.6494 294.771 79.8183 295.154 78.7313C295.506 77.6444 295.761 76.6853 295.697 76.6214C295.633 76.5575 295.282 77.3887 294.899 78.4756Z" fill="#FDFDFD"/>
<path d="M352.254 77.9641C351.967 78.7953 352.031 78.9871 352.414 78.3477C352.606 78.028 352.702 77.6764 352.606 77.6124C352.542 77.5165 352.382 77.6764 352.254 77.9641Z" fill="#FDFDFD"/>
<path d="M341.518 86.8514C340.24 91.1032 338.323 97.1772 337.3 100.342C336.246 103.507 335.383 106.416 335.383 106.8C335.383 107.215 335.255 107.439 335.096 107.343C334.936 107.247 334.872 107.375 334.968 107.599C335.064 107.823 334.68 109.389 334.169 111.052C333.626 112.714 332.412 116.614 331.421 119.683C330.462 122.752 329.536 125.501 329.376 125.757C329.184 126.013 328.673 127.004 328.194 127.899C327.714 128.826 327.235 129.434 327.139 129.274C327.043 129.082 326.948 129.561 326.948 130.297C326.98 131.799 327.427 132.119 328.226 131.224C328.769 130.616 329.632 127.899 334.169 112.65C335.064 109.581 337.684 100.822 339.952 93.1811C342.253 85.5726 344.074 79.2748 343.979 79.2109C343.915 79.1469 342.828 82.5676 341.518 86.8514ZM329.376 127.036C329.184 127.388 328.961 127.675 328.865 127.675C328.801 127.675 328.865 127.388 329.056 127.036C329.248 126.684 329.472 126.397 329.568 126.397C329.632 126.397 329.568 126.684 329.376 127.036Z" fill="#FDFDFD"/>
<path d="M351.615 79.5625C351.328 80.3937 351.392 80.5855 351.775 79.9461C351.967 79.6264 352.063 79.2748 351.967 79.2109C351.903 79.1149 351.743 79.2748 351.615 79.5625Z" fill="#FDFDFD"/>
<path d="M350.976 81.1609C350.689 81.9921 350.753 82.1839 351.136 81.5446C351.328 81.2249 351.424 80.8732 351.328 80.8093C351.264 80.7134 351.104 80.8732 350.976 81.1609Z" fill="#FDFDFD"/>
<path d="M302.408 81.8003C302.12 82.6315 302.184 82.8233 302.567 82.1839C302.759 81.8642 302.855 81.5126 302.759 81.4487C302.695 81.3528 302.535 81.5126 302.408 81.8003Z" fill="#FDFDFD"/>
<path d="M286.111 89.4728C285.824 90.304 285.888 90.4958 286.271 89.8564C286.463 89.5367 286.559 89.1851 286.463 89.1211C286.399 89.0252 286.239 89.1851 286.111 89.4728Z" fill="#FDFDFD"/>
<path d="M348.58 92.0622C348.58 92.4139 348.676 92.5098 348.772 92.2541C348.867 92.0303 348.835 91.7426 348.74 91.6467C348.644 91.5188 348.548 91.7106 348.58 92.0622Z" fill="#FDFDFD"/>
<path d="M346.822 97.4969C346.503 98.4879 346.311 99.3511 346.375 99.415C346.471 99.479 346.758 98.7437 347.078 97.7527C347.398 96.7616 347.589 95.8985 347.525 95.8346C347.43 95.7706 347.142 96.5059 346.822 97.4969Z" fill="#FDFDFD"/>
<path d="M242.655 98.424C242.368 99.2552 242.432 99.447 242.815 98.8076C243.007 98.4879 243.103 98.1363 243.007 98.0723C242.943 97.9764 242.783 98.1363 242.655 98.424Z" fill="#FDFDFD"/>
<path d="M252.88 99.0634C252.593 99.8946 252.657 100.086 253.04 99.447C253.232 99.1273 253.328 98.7757 253.232 98.7117C253.168 98.6158 253.008 98.7757 252.88 99.0634Z" fill="#FDFDFD"/>
<path d="M242.016 100.022C241.729 100.854 241.792 101.045 242.176 100.406C242.368 100.086 242.463 99.7347 242.368 99.6708C242.304 99.5749 242.144 99.7347 242.016 100.022Z" fill="#FDFDFD"/>
<path d="M351.615 100.022C351.52 100.31 351.424 100.726 351.456 100.918C351.456 101.141 351.615 100.95 351.775 100.534C351.935 100.118 352.031 99.7027 351.935 99.6388C351.871 99.5748 351.743 99.7347 351.615 100.022Z" fill="#FDFDFD"/>
<path d="M250.963 103.891C250.132 105.937 249.525 107.663 249.589 107.727C249.653 107.791 250.356 106.16 251.187 104.114C252.017 102.068 252.625 100.342 252.561 100.278C252.497 100.214 251.762 101.845 250.963 103.891Z" fill="#FDFDFD"/>
<path d="M241.377 101.621C241.09 102.452 241.153 102.644 241.537 102.005C241.729 101.685 241.824 101.333 241.729 101.269C241.665 101.173 241.505 101.333 241.377 101.621Z" fill="#FDFDFD"/>
<path d="M352.893 102.292C352.766 102.74 352.734 103.187 352.798 103.283C352.893 103.347 353.053 103.028 353.149 102.548C353.277 102.1 353.309 101.653 353.245 101.557C353.149 101.493 352.989 101.813 352.893 102.292Z" fill="#FDFDFD"/>
<path d="M327.336 77.0154C327.112 77.7187 326.984 78.39 327.08 78.454C327.144 78.5179 327.368 78.0064 327.591 77.2711C327.815 76.5678 327.943 75.8965 327.847 75.8325C327.783 75.7686 327.56 76.2801 327.336 77.0154Z" fill="#FDFDFD"/>
<path d="M341.235 78.1343C340.948 78.9655 340.788 79.7008 340.852 79.7647C340.916 79.8287 341.204 79.2213 341.491 78.3901C341.779 77.5589 341.938 76.8236 341.875 76.7597C341.811 76.6957 341.523 77.3031 341.235 78.1343Z" fill="#FDFDFD"/>
<path d="M224.127 81.0115C223.744 82.0025 223.488 82.8976 223.552 82.9616C223.616 83.0255 223.999 82.2583 224.383 81.2672C224.766 80.2762 225.022 79.3811 224.958 79.3171C224.894 79.2532 224.511 80.0205 224.127 81.0115Z" fill="#FDFDFD"/>
<path d="M215.819 81.8107C215.436 83.0575 215.148 84.1124 215.212 84.2083C215.276 84.2723 215.66 83.3132 216.075 82.0665C216.459 80.8197 216.746 79.7647 216.682 79.6688C216.618 79.6049 216.235 80.564 215.819 81.8107Z" fill="#FDFDFD"/>
<path d="M203.997 84.3682C203.805 84.9436 203.709 85.4551 203.773 85.5191C203.837 85.583 204.061 85.1994 204.252 84.6239C204.444 84.0485 204.54 83.537 204.476 83.473C204.412 83.4091 204.189 83.7927 203.997 84.3682Z" fill="#FDFDFD"/>
<path d="M254.642 86.4142C254.355 87.2454 254.419 87.4372 254.802 86.7978C254.994 86.4781 255.09 86.1265 254.994 86.0625C254.93 85.9666 254.77 86.1265 254.642 86.4142Z" fill="#FDFDFD"/>
<path d="M253.844 88.5241C253.652 89.0995 253.556 89.611 253.62 89.675C253.684 89.7389 253.908 89.3553 254.099 88.7798C254.291 88.2044 254.387 87.6929 254.323 87.629C254.259 87.565 254.035 87.9486 253.844 88.5241Z" fill="#FDFDFD"/>
<path d="M341.715 88.3643C341.715 88.7159 341.811 88.8118 341.907 88.5561C342.002 88.3323 341.97 88.0446 341.875 87.9487C341.779 87.8208 341.683 88.0126 341.715 88.3643Z" fill="#FDFDFD"/>
<path d="M236.909 88.6839C236.909 89.0356 237.004 89.1315 237.1 88.8758C237.196 88.652 237.164 88.3643 237.068 88.2684C236.972 88.1405 236.877 88.3323 236.909 88.6839Z" fill="#FDFDFD"/>
<path d="M205.115 88.9717C204.828 89.8029 204.891 89.9947 205.275 89.3553C205.467 89.0356 205.562 88.684 205.467 88.62C205.403 88.5241 205.243 88.684 205.115 88.9717Z" fill="#FDFDFD"/>
<path d="M252.885 91.0816C252.693 91.6571 252.598 92.1685 252.661 92.2325C252.725 92.2964 252.949 91.9128 253.141 91.3374C253.332 90.7619 253.428 90.2504 253.364 90.1865C253.3 90.1226 253.077 90.5062 252.885 91.0816Z" fill="#FDFDFD"/>
<path d="M236.269 90.9217C236.269 91.2734 236.365 91.3693 236.461 91.1136C236.557 90.8898 236.525 90.602 236.429 90.5061C236.333 90.3782 236.237 90.5701 236.269 90.9217Z" fill="#FDFDFD"/>
<path d="M204.157 91.5292C203.869 92.3604 203.933 92.5522 204.316 91.9128C204.508 91.5931 204.604 91.2414 204.508 91.1775C204.444 91.0816 204.284 91.2414 204.157 91.5292Z" fill="#FDFDFD"/>
<path d="M340.756 91.5611C340.756 91.9128 340.852 92.0087 340.948 91.7529C341.044 91.5292 341.012 91.2414 340.916 91.1455C340.82 91.0177 340.724 91.2095 340.756 91.5611Z" fill="#FDFDFD"/>
<path d="M305.448 91.8489C305.16 92.68 305.224 92.8718 305.608 92.2325C305.799 91.9128 305.895 91.5611 305.799 91.4972C305.736 91.4013 305.576 91.5611 305.448 91.8489Z" fill="#FDFDFD"/>
<path d="M203.358 93.6391C203.166 94.2145 203.07 94.726 203.134 94.79C203.198 94.8539 203.422 94.4703 203.613 93.8948C203.805 93.3194 203.901 92.8079 203.837 92.744C203.773 92.68 203.549 93.0637 203.358 93.6391Z" fill="#FDFDFD"/>
<path d="M235.471 93.4792C235.343 93.9268 235.311 94.3744 235.375 94.4703C235.471 94.5342 235.63 94.2145 235.726 93.735C235.854 93.2874 235.886 92.8399 235.822 92.744C235.726 92.68 235.566 92.9997 235.471 93.4792Z" fill="#FDFDFD"/>
<path d="M339.957 94.1186C339.83 94.5662 339.798 95.0138 339.861 95.1097C339.957 95.1736 340.117 94.8539 340.213 94.3744C340.341 93.9268 340.373 93.4792 340.309 93.3833C340.213 93.3194 340.053 93.6391 339.957 94.1186Z" fill="#FDFDFD"/>
<path d="M288.832 95.0457C288.545 95.8769 288.609 96.0687 288.992 95.4293C289.184 95.1097 289.28 94.758 289.184 94.6941C289.12 94.5982 288.96 94.758 288.832 95.0457Z" fill="#FDFDFD"/>
<path d="M304.01 95.8769C303.818 96.4523 303.723 96.9638 303.786 97.0278C303.85 97.0917 304.074 96.7081 304.266 96.1327C304.457 95.5572 304.553 95.0457 304.489 94.9818C304.426 94.9179 304.202 95.3015 304.01 95.8769Z" fill="#FDFDFD"/>
<path d="M202.08 96.9958C201.696 97.9868 201.441 98.882 201.504 98.9459C201.568 99.0098 201.952 98.2426 202.335 97.2516C202.719 96.2606 202.974 95.3655 202.91 95.3015C202.846 95.2376 202.463 96.0048 202.08 96.9958Z" fill="#FDFDFD"/>
<path d="M288.193 96.6441C287.906 97.4753 287.97 97.6672 288.353 97.0278C288.545 96.7081 288.641 96.3564 288.545 96.2925C288.481 96.1966 288.321 96.3564 288.193 96.6441Z" fill="#FDFDFD"/>
<path d="M338.999 97.3155C338.871 97.7631 338.839 98.2106 338.903 98.3065C338.999 98.3705 339.159 98.0508 339.254 97.5712C339.382 97.1237 339.414 96.6761 339.35 96.5802C339.254 96.5163 339.095 96.8359 338.999 97.3155Z" fill="#FDFDFD"/>
<path d="M219.175 98.882C219.079 99.1697 218.983 99.5853 219.015 99.7771C219.015 100.001 219.175 99.809 219.334 99.3935C219.494 98.9779 219.59 98.5623 219.494 98.4984C219.43 98.4344 219.302 98.5943 219.175 98.882Z" fill="#FDFDFD"/>
<path d="M302.892 98.882C302.604 99.7131 302.668 99.905 303.051 99.2656C303.243 98.9459 303.339 98.5942 303.243 98.5303C303.179 98.4344 303.02 98.5942 302.892 98.882Z" fill="#FDFDFD"/>
<path d="M218.535 100.8C218.44 101.088 218.344 101.503 218.376 101.695C218.376 101.919 218.535 101.727 218.695 101.312C218.855 100.896 218.951 100.48 218.855 100.416C218.791 100.352 218.663 100.512 218.535 100.8Z" fill="#FDFDFD"/>
<path d="M323.182 101.823C323.15 102.015 323.054 102.462 322.958 102.782C322.799 103.326 322.799 103.326 323.15 102.782C323.342 102.462 323.438 102.047 323.342 101.823C323.246 101.535 323.182 101.535 323.182 101.823Z" fill="#FDFDFD"/>
<path d="M231.157 103.39C231.157 103.741 231.253 103.837 231.349 103.581C231.445 103.358 231.413 103.07 231.317 102.974C231.221 102.846 231.125 103.038 231.157 103.39Z" fill="#FDFDFD"/>
<path d="M322.543 103.741C322.511 103.933 322.415 104.381 322.319 104.7C322.159 105.244 322.159 105.244 322.511 104.7C322.703 104.381 322.799 103.965 322.703 103.741C322.607 103.453 322.543 103.453 322.543 103.741Z" fill="#FDFDFD"/>
<path d="M272.057 104.668C272.057 105.02 272.153 105.116 272.249 104.86C272.345 104.636 272.313 104.349 272.217 104.253C272.121 104.125 272.025 104.317 272.057 104.668Z" fill="#FDFDFD"/>
<path d="M271.258 107.226C271.13 107.673 271.098 108.121 271.162 108.217C271.258 108.281 271.418 107.961 271.514 107.482C271.642 107.034 271.674 106.586 271.61 106.49C271.514 106.427 271.354 106.746 271.258 107.226Z" fill="#FDFDFD"/>
<path d="M320.306 107.545C320.306 107.897 320.402 107.993 320.498 107.737C320.594 107.514 320.562 107.226 320.466 107.13C320.37 107.002 320.274 107.194 320.306 107.545Z" fill="#FDFDFD"/>
<path d="M306.566 108.185C306.566 108.536 306.662 108.632 306.758 108.377C306.854 108.153 306.822 107.865 306.726 107.769C306.63 107.641 306.534 107.833 306.566 108.185Z" fill="#FDFDFD"/>
<path d="M340.437 108.505C340.437 108.856 340.532 108.952 340.628 108.696C340.724 108.473 340.692 108.185 340.596 108.089C340.501 107.961 340.405 108.153 340.437 108.505Z" fill="#FDFDFD"/>
</g>
<defs>
<linearGradient id="paint0_linear" x1="-2.59159e-06" y1="108.5" x2="471" y2="-51" gradientUnits="userSpaceOnUse">
<stop stop-color="#1E94FE"/>
<stop offset="1" stop-color="#A4DAFF"/>
</linearGradient>
<clipPath id="clip0">
<rect width="360" height="120" fill="white"/>
</clipPath>
</defs>
</svg>
